Coordinates
version=1
nRows=24
nColumns=22
inDegrees=yes

Units are S.I. units (second, meters, Newtons, ...)
If the header above contains a line with 'inDegrees', this indicates whether rotational values are in degrees (yes) or radians (no).

endheader
time	pelvis_tilt	pelvis_list	pelvis_rotation	pelvis_tx	pelvis_ty	pelvis_tz	hip_flexion_r	hip_adduction_r	hip_rotation_r	knee_angle_r	ankle_angle_r	subtalar_angle_r	hip_flexion_l	hip_adduction_l	hip_rotation_l	knee_angle_l	ankle_angle_l	subtalar_angle_l	lumbar_extension	lumbar_bending	lumbar_rotation
      1.85000000	     -0.01946650	     -2.71185799	     43.73334067	      0.62407034	      0.93773965	      0.84353201	     31.16282857	      2.85176490	      9.76910016	    -44.94640771	      8.78557927	      3.63586298	      0.77012830	     10.84354520	     16.49736877	    -16.82518235	     10.19701435	    -17.10138462	     -8.16812248	      0.37518534	     -9.25548479
      1.86000000	      0.03536614	     -2.72895481	     44.45354003	      0.62965789	      0.93672618	      0.83687635	     31.24637900	      3.15899228	     10.39482163	    -42.22672125	      8.56824838	      4.32166267	      0.05736301	     10.79256754	     17.11751231	    -16.76170157	     10.49871777	    -17.26307453	     -8.19501713	      0.36243314	     -9.30222181
      1.87000000	      0.07610122	     -2.77720257	     45.13708795	      0.63526081	      0.93555778	      0.83016757	     31.29789399	      3.43428800	     10.96686224	    -39.41786728	      8.33481806	      4.85529907	     -0.59968754	     10.72315194	     17.63806338	    -16.73257167	     10.86941388	    -17.44604080	     -8.18456684	      0.37447849	     -9.35705858
      1.88000000	      0.11649183	     -2.76819808	     45.74574554	      0.64097014	      0.93436874	      0.82339151	     31.23399813	      3.64749241	     11.54754989	    -36.54315434	      8.31212926	      5.63344051	     -1.32908309	     10.68618848	     18.10643939	    -16.65371086	     11.10594185	    -17.65466205	     -8.21590895	      0.33519710	     -9.33508441
      1.89000000	      0.15350589	     -2.80782938	     46.36565462	      0.64662835	      0.93303143	      0.81651115	     31.14709059	      3.82802087	     12.00836475	    -33.62234511	      8.27961587	      6.19181204	     -1.98947790	     10.61698313	     18.53089393	    -16.63547891	     11.41727478	    -17.87570127	     -8.20631100	      0.34920939	     -9.35037837
      1.90000000	      0.18906196	     -2.83674855	     46.95756367	      0.65233736	      0.93163087	      0.80953917	     30.99344937	      3.96643609	     12.40584760	    -30.69487721	      8.32969237	      6.78791484	     -2.66785473	     10.54800439	     18.92672197	    -16.60688327	     11.69135608	    -18.11756906	     -8.20041010	      0.35392064	     -9.36556166
      1.91000000	      0.21812572	     -2.88152784	     47.55214215	      0.65803594	      0.93013988	      0.80243046	     30.80713286	      4.07023347	     12.72515570	    -27.80979745	      8.41369780	      7.36134767	     -3.33442080	     10.46406752	     19.31044190	    -16.57967859	     11.96023653	    -18.35632353	     -8.17133614	      0.37836528	     -9.40934212
      1.92000000	      0.23831629	     -2.93268424	     48.14127768	      0.66372437	      0.92857821	      0.79518623	     30.59514791	      4.14439985	     12.99108736	    -25.02348357	      8.52307486	      7.97309457	     -3.99818540	     10.37488699	     19.70135862	    -16.54878403	     12.20734947	    -18.58901990	     -8.12573120	      0.41065356	     -9.46143591
      1.93000000	      0.25205734	     -2.99523308	     48.74493831	      0.66938571	      0.92695982	      0.78778681	     30.37193853	      4.19303342	     13.19182117	    -22.39814504	      8.61775665	      8.52882069	     -4.64801120	     10.27147992	     20.09494969	    -16.52928909	     12.44463602	    -18.78475776	     -8.05934734	      0.46008434	     -9.57001345
      1.94000000	      0.23533569	     -3.06428801	     49.31908923	      0.67508146	      0.92527845	      0.78026028	     30.17432553	      4.23100648	     13.41359970	    -20.02148735	      8.72736418	      9.18625529	     -5.29593601	     10.17507570	     20.51315768	    -16.47385116	     12.64106619	    -18.96326616	     -7.95487655	      0.49316504	     -9.65387583
      1.95000000	      0.21813276	     -3.15871529	     49.92691601	      0.68069634	      0.92356887	      0.77255819	     30.00496840	      4.26183471	     13.54517444	    -17.94328311	      8.78614513	      9.60698922	     -5.89854178	     10.05756524	     20.95699273	    -16.47403696	     12.81809389	    -19.06441072	     -7.82477178	      0.56300464	     -9.78457829
      1.96000000	      0.17815553	     -3.24274615	     50.50207637	      0.68636890	      0.92186876	      0.76471700	     29.87204934	      4.29466359	     13.71110765	    -16.25089322	      8.84219703	     10.04784160	     -6.51603008	      9.94918826	     21.39410300	    -16.43684850	     12.95776818	    -19.12136920	     -7.67302665	      0.61063841	     -9.92439900
      1.97000000	      0.09455147	     -3.37301272	     51.06248659	      0.69201592	      0.92011355	      0.75678224	     29.85561455	      4.34484826	     13.86252831	    -14.99252922	      8.79299953	     10.25363903	     -7.03990342	      9.84834227	     21.86238169	    -16.45101337	     13.07846396	    -19.13286708	     -7.44787901	      0.65817058	    -10.04377891
      1.98000000	      0.07893507	     -3.48026973	     51.61820366	      0.69769638	      0.91852501	      0.74861577	     29.81042971	      4.44646168	     13.95043557	    -14.18374469	      8.78167133	     10.45914929	     -7.62807684	      9.70077079	     22.31261164	    -16.47967359	     13.12119024	    -19.04539057	     -7.27597873	      0.76807999	    -10.16717922
      1.99000000	      0.03574684	     -3.63187039	     52.13268722	      0.70340962	      0.91694797	      0.74036751	     29.88060174	      4.59591229	     14.06485759	    -13.84327417	      8.60503225	     10.48379581	     -8.13252155	      9.55511937	     22.76239977	    -16.56159873	     13.13434534	    -18.93663550	     -7.03920309	      0.88650640	    -10.24973993
      2.00000000	      0.04147803	     -3.80219648	     52.62156612	      0.70919084	      0.91551227	      0.73193555	     29.97691545	      4.82523165	     14.18376870	    -13.93616479	      8.33202029	     10.29440063	     -8.63929830	      9.35967933	     23.18434947	    -16.67571747	     13.11938019	    -18.66994049	     -6.80402697	      1.07579485	    -10.32633766
      2.01000000	      0.06346504	     -4.01430962	     53.06369151	      0.71503072	      0.91417884	      0.72338770	     30.14051513	      5.13141415	     14.36737835	    -14.41068179	      7.84869057	      9.87589124	     -9.07117544	      9.14570359	     23.55963215	    -16.88253391	     13.05694600	    -18.33890204	     -6.53334076	      1.31529951	    -10.35273370
      2.02000000	      0.12786991	     -4.26037574	     53.45486015	      0.72094095	      0.91300956	      0.71470172	     30.32825419	      5.52614472	     14.63880545	    -15.18070995	      7.16974019	      9.31848916	     -9.43929627	      8.90429611	     23.85757517	    -17.20044798	     12.92200459	    -17.93691877	     -6.25037576	      1.62663139	    -10.32124911
      2.03000000	      0.24117168	     -4.53462244	     53.79493868	      0.72692285	      0.91204017	      0.70585321	     30.52598490	      6.00613273	     14.99141143	    -16.17867094	      6.32632645	      8.72190830	     -9.74516710	      8.63618484	     24.03657585	    -17.63477041	     12.71321626	    -17.44991927	     -5.96275103	      2.01775914	    -10.26563497
      2.04000000	      0.39846671	     -4.81739923	     54.09178110	      0.73289996	      0.91132002	      0.69683848	     30.70656581	      6.54071714	     15.38157406	    -17.31385229	      5.38026129	      7.98548680	     -9.96788761	      8.37821704	     24.12931768	    -18.24964755	     12.39140623	    -16.73979151	     -5.69440648	      2.47315133	    -10.13538081
      2.05000000	      0.60220715	     -5.10234849	     54.34649708	      0.73886062	      0.91087340	      0.68764371	     30.85243501	      7.11614924	     15.77990369	    -18.52061510	      4.42068148	      7.35023071	    -10.09744911	      8.13027379	     24.05880814	    -19.05763076	     11.95292579	    -15.86412356	     -5.45152441	      2.99632264	     -9.98844549
      2.06000000	      0.83327558	     -5.37267748	     54.55591004	      0.74477264	      0.91071006	      0.67826769	     30.95889818	      7.69709651	     16.13187874	    -19.75991040	      3.55035568	      6.80566076	    -10.11883916	      7.92079800	     23.80679696	    -20.07737859	     11.38452584	    -14.71641917	     -5.23988837	      3.55790054	     -9.79623884
      2.07000000	      1.07028472	     -5.60643575	     54.72087364	      0.75058511	      0.91082636	      0.66872363	     31.00900762	      8.23645655	     16.39985890	    -20.98618165	      2.85436449	      6.39718118	    -10.01161474	      7.77951360	     23.33684682	    -21.33704840	     10.65875541	    -13.25901479	     -5.07107566	      4.12547808	     -9.55533762
      2.08000000	      1.30104193	     -5.77696906	     54.88081753	      0.75621719	      0.91125999	      0.65900836	     30.95301540	      8.67351202	     16.55372084	    -22.12270867	      2.35264510	      6.10045609	     -9.77107791	      7.71930599	     22.68344255	    -22.85277576	      9.74763089	    -11.36265552	     -4.96512701	      4.66869597	     -9.31372895
